# xmcd
#
# Track frame offsets: 
#        150
#        14677
#        26335
#        36470
#        52615
#        67482
#
# Disc length: 1027 seconds
#
# Revision: 0
# Processed by: cddbd v1.5.2PL0 Copyright (c) Steve Scherf et al.
# Submitted via: ExactAudioCopyFreeDBPlugin 1.0
#
DISCID=4e040106
DTITLE=Various Artist - Country and Western Classics
DYEAR=1994
DGENRE=Country
TTITLE0=Loretta Lynn - Coal Miner's Daughter (live)
TTITLE1=Guy Mitchell - Heartaches By The Number
TTITLE2=Willie Nelson - Healing Hands Of Time
TTITLE3=Brenda Lee - Comin' On Strong (live)
TTITLE4=Jeannie C. Riley - Harper valley PTA
TTITLE5=Dolly Parton - Release Me
EXTD=
EXTT0=
EXTT1=
EXTT2=
EXTT3=
EXTT4=
EXTT5=
PLAYORDER=
